# xmcd CD database file
#
# Track frame offsets:
#	150
#	18628
#	36057
#
# Disc length: 676 seconds
#
# Revision: 0
# Processed by: cddbd v1.5PL3 Copyright (c) Steve Scherf et al.
# Submitted via: CDex 1.50
#
DISCID=1c02a203
DTITLE=スムルース - カルピスチュッチュ
DYEAR=2001
DGENRE=Pop
TTITLE0=カルピスチュッチュ
TTITLE1=憂患の始め
TTITLE2=空
EXTD=YEAR: 2001
EXTT0=
EXTT1=
EXTT2=
PLAYORDER=
